With: Andrea López, Carolina Sepulveda en Alejandra Pinzón

Twee onbekenden, Vivian en Andrea, ontmoeten elkaar in een bar waar ze hun verdriet aan het verdrinken zijn. Wanneer ze van elkaar horen dat hun relatie op de klippen is gelopen bedenken ze een plan om elkaar te helpen. Andrea stemt er mee in om Vivians gewelddadige man te doden. Op haar beurt zal Vivian Andrea's geliefde Gloria aanpakken, die haar belangstelling naar een andere vrouw heeft verschoven. Verblind door wraakgevoelens beginnen ze aan een missie die leidt tot verleiding, moord en een schok die ze nooit hadden kunnen voorspellen.

Soft English subs (srt)
Viviana (Andrea Lopez) and Alicia (Martha Isabel Bolaños) have never met, but they're about to get intimately acquainted..

------------------ Dutch Friends ------------------
You can find my Friends at: http://www.Film-Test.nl 
------ They got my dutch subs ----- and more ------

General:

Complete name                    : Sex, Lies and Death\Sex, Lies and Death.avi
Format                           : AVI
Format/Info                      : Audio Video Interleave
File size                        : 1.18 GiB
Duration                         : 1h 26mn
Overall bit rate                 : 1 949 Kbps

Video:

Format                           : MPEG-4 Visual
Format profile                   : Simple@L3
Format settings, BVOP            : No
Format settings, QPel            : No
Format settings, GMC             : No warppoints
Format settings, Matrix          : Default (H.263)
Codec ID                         : XVID
Codec ID/Hint                    : XviD
Duration                         : 1h 26mn
Bit rate                         : 1 745 Kbps
Width                            : 652 pixels
Height                           : 352 pixels
Display aspect ratio             : 1.852
Frame rate                       : 29.970 fps
Color space                      : YUV
Chroma subsampling               : 4:2:0
Bit depth                        : 8 bits
Scan type                        : Progressive
Compression mode                 : Lossy
Bits/(Pixel*Frame)               : 0.254
Stream size                      : 1.05 GiB (90%)
Writing library                  : XviD 1.1.2 (UTC 2006-11-01)

Audio:

Format                           : AC-3
Format/Info                      : Audio Coding 3
Mode extension                   : CM (complete main)
Codec ID                         : 2000
Duration                         : 1h 26mn
Bit rate mode                    : Constant
Bit rate                         : 192 Kbps
Channel(s)                       : 2 channels
Channel positions                : Front: L R
Sampling rate                    : 48.0 KHz
Bit depth                        : 16 bits
Compression mode                 : Lossy
Stream size                      : 119 MiB (10%)
Alignment                        : Aligned on interleaves
Interleave, duration             : 32 ms (0.96 video frame)
Interleave, preload duration     : 64 ms
